<?xml version="1.0" encoding="iso-8859-1"?>
<!-- Uploaded to: SVG Repo, www.svgrepo.com, Generator: SVG Repo Mixer Tools -->
<svg height="800px" width="800px" version="1.1" id="Layer_1" xmlns="http://www.w3.org/2000/svg" xmlns:xlink="http://www.w3.org/1999/xlink" 
	 viewBox="0 0 512 512" xml:space="preserve">
<path style="fill:#2C6991;" d="M433.485,512H318.996c-77.175,0-139.962-62.786-139.962-139.961v-21.552
	c0-10.348,8.389-18.737,18.737-18.737s18.737,8.389,18.737,18.737v21.552c0,56.512,45.977,102.488,102.489,102.488h114.489
	c10.348,0,18.737,8.389,18.737,18.737C452.221,503.611,443.832,512,433.485,512z"/>
<path style="fill:#CCCCCC;" d="M245.583,372.648h-94.308c-15.925,0-28.833-12.909-28.833-28.833v-85.98
	c0-15.925,12.91-28.833,28.833-28.833h94.308c15.925,0,28.833,12.91,28.833,28.833v85.98
	C274.416,359.739,261.507,372.648,245.583,372.648z"/>
<path style="fill:#E1E1E1;" d="M198.204,372.648h-46.93c-15.925,0-28.833-12.909-28.833-28.833v-85.98
	c0-15.925,12.91-28.833,28.833-28.833h46.93V372.648z"/>
<path style="fill:#2C6991;" d="M259.635,107.423c-10.348,0-18.737-8.389-18.737-18.737v-69.95C240.899,8.389,249.288,0,259.635,0
	s18.737,8.389,18.737,18.737v69.95C278.372,99.034,269.983,107.423,259.635,107.423z"/>
<path style="fill:#528FB3;" d="M259.635,107.423c-9.993,0-18.737-8.389-18.737-18.737v-69.95C240.899,8.389,249.643,0,259.635,0
	V107.423z"/>
<path style="fill:#2C6991;" d="M135.974,107.423c-10.348,0-18.737-8.389-18.737-18.737v-69.95C117.237,8.389,125.626,0,135.974,0
	s18.737,8.389,18.737,18.737v69.95C154.711,99.034,146.322,107.423,135.974,107.423z"/>
<path style="fill:#528FB3;" d="M135.974,107.423c-9.993,0-18.737-8.389-18.737-18.737v-69.95C117.237,8.389,125.981,0,135.974,0
	V107.423z"/>
<path style="fill:#ABA8AB;" d="M317.698,82.441H77.843c-10.348,0-18.065,7.933-18.065,18.281v66.206
	c0,62.678,50.32,114.121,112.997,114.121h49.99c62.678,0,114.314-51.444,114.314-114.121v-66.206
	C337.08,90.374,328.045,82.441,317.698,82.441z"/>
<path style="fill:#CCCCCC;" d="M198.429,82.441H77.843c-10.348,0-18.065,7.933-18.065,18.281v66.206
	c0,62.678,50.32,114.121,112.997,114.121h25.429L198.429,82.441z"/>
</svg>