<?xml version="1.0" encoding="iso-8859-1"?>
<!-- Uploaded to: SVG Repo, www.svgrepo.com, Generator: SVG Repo Mixer Tools -->
<svg height="800px" width="800px" version="1.1" id="Capa_1" xmlns="http://www.w3.org/2000/svg" xmlns:xlink="http://www.w3.org/1999/xlink" 
	 viewBox="0 0 470 470" xml:space="preserve">
<g>
	<path style="fill:#FF8985;" d="M235.757,306.888c16.027,0,29.066-13.039,29.066-29.066s-13.039-29.066-29.066-29.066
		s-29.066,13.039-29.066,29.066S219.729,306.888,235.757,306.888z"/>
	<path style="fill:#FF3B33;" d="M167.538,207.168c-7.995,0-14.5,6.505-14.5,14.5s6.505,14.5,14.5,14.5s14.5-6.505,14.5-14.5
		S175.533,207.168,167.538,207.168z"/>
	<path style="fill:#FF8985;" d="M165.388,111.17c-7.995,0-14.5,6.505-14.5,14.5s6.505,14.5,14.5,14.5s14.5-6.505,14.5-14.5
		S173.383,111.17,165.388,111.17z"/>
	<path style="fill:#FF3B33;" d="M165.388,44c7.995,0,14.5-6.505,14.5-14.5s-6.505-14.5-14.5-14.5s-14.5,6.505-14.5,14.5
		S157.393,44,165.388,44z"/>
	<path style="fill:#FF3B33;" d="M303.976,236.168c7.995,0,14.5-6.505,14.5-14.5s-6.505-14.5-14.5-14.5s-14.5,6.505-14.5,14.5
		S295.98,236.168,303.976,236.168z"/>
	<path style="fill:#FF8985;" d="M306.127,140.17c7.995,0,14.5-6.505,14.5-14.5s-6.505-14.5-14.5-14.5s-14.5,6.505-14.5,14.5
		S298.132,140.17,306.127,140.17z"/>
	<path style="fill:#FF3B33;" d="M306.127,44c7.995,0,14.5-6.505,14.5-14.5s-6.505-14.5-14.5-14.5s-14.5,6.505-14.5,14.5
		S298.132,44,306.127,44z"/>
	<path style="fill:#9345EB;" d="M386.131,46.623c8.719,0,15.812-7.093,15.812-15.812S394.85,15,386.131,15
		c-8.718,0-15.811,7.093-15.811,15.812S377.413,46.623,386.131,46.623z"/>
	<path style="fill:#D4B5F7;" d="M386.122,117.267c8.733-0.006,15.821-7.096,15.821-15.811c0-8.719-7.093-15.812-15.812-15.812
		c-8.718,0-15.811,7.093-15.811,15.812C370.32,110.172,377.408,117.262,386.122,117.267z"/>
	<path style="fill:#9345EB;" d="M386.131,156.289c-8.718,0-15.811,7.093-15.811,15.812s7.093,15.812,15.811,15.812
		c8.719,0,15.812-7.093,15.812-15.812S394.85,156.289,386.131,156.289z"/>
	<path style="fill:#D4B5F7;" d="M386.131,226.934c-8.718,0-15.811,7.093-15.811,15.812c0,8.716,7.088,15.806,15.801,15.811
		c8.733-0.006,15.821-7.096,15.821-15.811C401.942,234.026,394.85,226.934,386.131,226.934z"/>
	<path style="fill:#9345EB;" d="M382.893,297.361c-8.719,0-15.812,7.093-15.812,15.812s7.093,15.812,15.812,15.812
		s15.812-7.093,15.812-15.812S391.611,297.361,382.893,297.361z"/>
	<path style="fill:#D4B5F7;" d="M356.013,361.52c-8.719,0-15.812,7.093-15.812,15.812s7.093,15.812,15.812,15.812
		s15.812-7.093,15.812-15.812S364.731,361.52,356.013,361.52z"/>
	<path style="fill:#9345EB;" d="M302.961,406.682c-8.719,0-15.812,7.093-15.812,15.812s7.093,15.812,15.812,15.812
		s15.812-7.093,15.812-15.812S311.68,406.682,302.961,406.682z"/>
	<path style="fill:#D4B5F7;" d="M250.812,439.188c0-8.719-7.093-15.812-15.812-15.812s-15.812,7.093-15.812,15.812
		S226.281,455,235,455S250.812,447.907,250.812,439.188z"/>
	<path style="fill:#9345EB;" d="M83.869,46.623c8.718,0,15.811-7.093,15.811-15.812S92.587,15,83.869,15
		c-8.719,0-15.812,7.093-15.812,15.812S75.15,46.623,83.869,46.623z"/>
	<path style="fill:#D4B5F7;" d="M83.859,117.267c8.733-0.005,15.821-7.095,15.821-15.811c0-8.719-7.093-15.812-15.811-15.812
		c-8.719,0-15.812,7.093-15.812,15.812C68.058,110.171,75.145,117.261,83.859,117.267z"/>
	<path style="fill:#9345EB;" d="M83.869,187.912c8.718,0,15.811-7.093,15.811-15.812s-7.093-15.812-15.811-15.812
		c-8.719,0-15.812,7.093-15.812,15.812S75.15,187.912,83.869,187.912z"/>
	<path style="fill:#D4B5F7;" d="M83.859,258.556c8.733-0.005,15.821-7.095,15.821-15.811c0-8.719-7.093-15.812-15.811-15.812
		c-8.719,0-15.812,7.093-15.812,15.812C68.058,251.46,75.145,258.551,83.859,258.556z"/>
	<path style="fill:#9345EB;" d="M87.107,328.984c8.719,0,15.812-7.093,15.812-15.812s-7.093-15.812-15.812-15.812
		s-15.812,7.093-15.812,15.812S78.389,328.984,87.107,328.984z"/>
	<path style="fill:#D4B5F7;" d="M129.799,377.331c0-8.719-7.093-15.812-15.812-15.812s-15.812,7.093-15.812,15.812
		s7.093,15.812,15.812,15.812S129.799,386.05,129.799,377.331z"/>
	<path style="fill:#9345EB;" d="M182.851,422.493c0-8.719-7.093-15.812-15.812-15.812s-15.812,7.093-15.812,15.812
		s7.093,15.812,15.812,15.812S182.851,431.212,182.851,422.493z"/>
	<path style="fill:#081C1F;" d="M416.942,101.456c0-14.402-9.935-26.525-23.311-29.884V60.695
		c13.375-3.359,23.311-15.481,23.311-29.884C416.942,13.822,403.12,0,386.131,0S355.32,13.822,355.32,30.812
		c0,14.403,9.935,26.526,23.312,29.884v10.876c-13.376,3.358-23.312,15.481-23.312,29.884s9.935,26.526,23.312,29.884v10.876
		c-13.376,3.358-23.312,15.481-23.312,29.884s9.935,26.526,23.312,29.884v10.876c-13.376,3.358-23.312,15.481-23.312,29.884
		s9.935,26.526,23.312,29.884v10.033c-14.979,2.082-26.551,14.967-26.551,30.51c0,11.883,6.766,22.208,16.644,27.347
		c-0.995,2.532-2.061,5.037-3.198,7.51c-2.998-0.976-6.194-1.51-9.513-1.51c-16.989,0-30.812,13.822-30.812,30.812
		c0,6.583,2.082,12.686,5.614,17.699c-2.075,1.859-4.2,3.663-6.378,5.399c-5.554-5.407-13.13-8.747-21.475-8.747
		c-16.989,0-30.812,13.822-30.812,30.812c0,1.445,0.108,2.865,0.301,4.257c-2.798,0.753-5.621,1.422-8.461,2.004
		c-4.285-11.869-15.661-20.378-28.989-20.378s-24.704,8.508-28.989,20.378c-2.84-0.583-5.663-1.251-8.461-2.004
		c0.193-1.393,0.301-2.812,0.301-4.257c0-16.989-13.822-30.812-30.812-30.812c-8.345,0-15.921,3.34-21.475,8.747
		c-2.178-1.736-4.304-3.54-6.378-5.399c3.531-5.012,5.614-11.115,5.614-17.699c0-16.989-13.822-30.812-30.812-30.812
		c-3.319,0-6.515,0.534-9.513,1.51c-1.137-2.472-2.204-4.978-3.198-7.51c9.878-5.138,16.644-15.464,16.644-27.347
		c0-15.543-11.572-28.428-26.551-30.51v-10.033c13.376-3.358,23.312-15.481,23.312-29.884s-9.935-26.526-23.312-29.884v-10.876
		c13.376-3.358,23.312-15.481,23.312-29.884s-9.935-26.526-23.312-29.884V131.34c13.376-3.358,23.312-15.481,23.312-29.884
		s-9.935-26.526-23.312-29.884V60.696c13.376-3.358,23.312-15.481,23.312-29.884C114.68,13.822,100.858,0,83.869,0
		S53.058,13.822,53.058,30.812c0,14.402,9.935,26.525,23.311,29.884v10.877c-13.375,3.359-23.311,15.481-23.311,29.884
		s9.935,26.525,23.311,29.884v10.877c-13.375,3.359-23.311,15.481-23.311,29.884s9.935,26.525,23.311,29.884v10.877
		c-13.375,3.359-23.311,15.481-23.311,29.884s9.935,26.525,23.311,29.884v11.667c-11.709,4.369-20.072,15.663-20.072,28.877
		c0,16.789,13.5,30.476,30.214,30.796c1.551,4.114,3.276,8.173,5.165,12.146c-5.26,5.53-8.5,12.999-8.5,21.215
		c0,16.989,13.822,30.812,30.812,30.812c4.931,0,9.591-1.171,13.728-3.239c3.188,2.927,6.505,5.724,9.918,8.383
		c-0.913,2.908-1.406,6.001-1.406,9.206c0,16.989,13.822,30.812,30.812,30.812c10.164,0,19.191-4.95,24.806-12.562
		c4.18,1.178,8.418,2.188,12.684,3.019C206.746,458.589,219.564,470,235,470s28.254-11.411,30.47-26.239
		c4.266-0.831,8.504-1.841,12.684-3.019c5.615,7.613,14.642,12.562,24.806,12.562c16.989,0,30.812-13.822,30.812-30.812
		c0-3.206-0.493-6.298-1.406-9.206c3.413-2.659,6.731-5.456,9.918-8.383c4.137,2.068,8.797,3.239,13.728,3.239
		c16.989,0,30.812-13.822,30.812-30.812c0-8.216-3.239-15.686-8.5-21.215c1.889-3.973,3.615-8.032,5.165-12.146
		c16.714-0.321,30.214-14.008,30.214-30.796c0-13.214-8.363-24.508-20.072-28.877v-11.667c13.375-3.359,23.311-15.481,23.311-29.884
		s-9.935-26.525-23.311-29.884v-10.877c13.375-3.359,23.311-15.481,23.311-29.884s-9.935-26.525-23.311-29.884V131.34
		C407.007,127.981,416.942,115.859,416.942,101.456z M151.228,422.493c0-8.719,7.093-15.812,15.812-15.812
		s15.812,7.093,15.812,15.812s-7.093,15.812-15.812,15.812S151.228,431.212,151.228,422.493z M98.176,377.331
		c0-8.719,7.093-15.812,15.812-15.812s15.812,7.093,15.812,15.812s-7.093,15.812-15.812,15.812S98.176,386.05,98.176,377.331z
		 M87.107,297.361c8.719,0,15.812,7.093,15.812,15.812s-7.093,15.812-15.812,15.812s-15.812-7.093-15.812-15.812
		S78.389,297.361,87.107,297.361z M83.869,226.934c8.718,0,15.811,7.093,15.811,15.812c0,8.716-7.088,15.806-15.801,15.811
		c-8.733-0.006-15.821-7.096-15.821-15.811C68.058,234.026,75.15,226.934,83.869,226.934z M83.869,156.289
		c8.718,0,15.811,7.093,15.811,15.812s-7.093,15.812-15.811,15.812c-8.719,0-15.812-7.093-15.812-15.812
		S75.15,156.289,83.869,156.289z M83.869,85.645c8.718,0,15.811,7.093,15.811,15.812c0,8.716-7.088,15.806-15.801,15.811
		c-8.733-0.006-15.821-7.096-15.821-15.811C68.058,92.737,75.15,85.645,83.869,85.645z M83.869,15
		c8.718,0,15.811,7.093,15.811,15.812s-7.093,15.812-15.811,15.812c-8.719,0-15.812-7.093-15.812-15.812S75.15,15,83.869,15z
		 M219.188,439.188c0-8.719,7.093-15.812,15.812-15.812s15.812,7.093,15.812,15.812S243.719,455,235,455
		S219.188,447.907,219.188,439.188z M386.131,85.645c8.719,0,15.812,7.093,15.812,15.812c0,8.715-7.087,15.805-15.801,15.811
		c-8.733-0.005-15.821-7.095-15.821-15.811C370.32,92.737,377.413,85.645,386.131,85.645z M386.131,15
		c8.719,0,15.812,7.093,15.812,15.812s-7.093,15.812-15.812,15.812c-8.718,0-15.811-7.093-15.811-15.812S377.413,15,386.131,15z
		 M386.131,187.912c-8.718,0-15.811-7.093-15.811-15.812s7.093-15.812,15.811-15.812c8.719,0,15.812,7.093,15.812,15.812
		S394.85,187.912,386.131,187.912z M386.141,258.556c-8.733-0.005-15.821-7.095-15.821-15.811c0-8.719,7.093-15.812,15.811-15.812
		c8.719,0,15.812,7.093,15.812,15.812C401.942,251.46,394.855,258.551,386.141,258.556z M382.893,328.984
		c-8.719,0-15.812-7.093-15.812-15.812s7.093-15.812,15.812-15.812s15.812,7.093,15.812,15.812S391.611,328.984,382.893,328.984z
		 M356.013,393.143c-8.719,0-15.812-7.093-15.812-15.812s7.093-15.812,15.812-15.812s15.812,7.093,15.812,15.812
		S364.731,393.143,356.013,393.143z M302.961,438.305c-8.719,0-15.812-7.093-15.812-15.812s7.093-15.812,15.812-15.812
		s15.812,7.093,15.812,15.812S311.68,438.305,302.961,438.305z"/>
	<path style="fill:#081C1F;" d="M135.888,125.67c0,13.676,9.354,25.204,22,28.531v39.597c-11.54,4.007-19.85,14.983-19.85,27.871
		c0,16.267,13.233,29.5,29.5,29.5c1.089,0,2.162-0.064,3.221-0.179c5.62,8.45,12.855,15.724,21.281,21.385
		c-0.221,1.787-0.349,3.602-0.349,5.448c0,24.298,19.769,44.066,44.066,44.066s44.066-19.769,44.066-44.066
		c0-1.845-0.127-3.661-0.349-5.447c8.425-5.661,15.661-12.934,21.281-21.385c1.058,0.115,2.131,0.179,3.22,0.179
		c16.267,0,29.5-13.233,29.5-29.5c0-12.887-8.309-23.863-19.849-27.87v-39.597c12.646-3.327,22-14.855,22-28.531
		s-9.354-25.204-22-28.531V58.031c12.646-3.327,22-14.855,22-28.531c0-16.267-13.233-29.5-29.5-29.5s-29.5,13.233-29.5,29.5
		c0,13.676,9.354,25.204,22,28.531v39.108c-12.646,3.327-22,14.855-22,28.531s9.354,25.204,22,28.531v38.462
		c-13.721,2.524-24.151,14.565-24.151,29.005c0,9.684,4.691,18.291,11.918,23.673c-3.335,4.489-7.259,8.51-11.662,11.951
		c-7.395-13.983-22.087-23.537-38.975-23.537c-16.888,0-31.579,9.554-38.975,23.537c-4.404-3.442-8.327-7.463-11.662-11.951
		c7.228-5.382,11.918-13.989,11.918-23.673c0-14.439-10.43-26.48-24.15-29.005v-38.462c12.646-3.327,22-14.855,22-28.531
		s-9.354-25.204-22-28.531V58.031c12.646-3.327,22-14.855,22-28.531c0-16.267-13.233-29.5-29.5-29.5s-29.5,13.233-29.5,29.5
		c0,13.676,9.354,25.204,22,28.531v39.108C145.242,100.466,135.888,111.994,135.888,125.67z M303.976,207.168
		c7.995,0,14.5,6.505,14.5,14.5s-6.505,14.5-14.5,14.5s-14.5-6.505-14.5-14.5S295.98,207.168,303.976,207.168z M306.127,111.17
		c7.995,0,14.5,6.505,14.5,14.5s-6.505,14.5-14.5,14.5s-14.5-6.505-14.5-14.5S298.132,111.17,306.127,111.17z M306.127,15
		c7.995,0,14.5,6.505,14.5,14.5s-6.505,14.5-14.5,14.5s-14.5-6.505-14.5-14.5S298.132,15,306.127,15z M235.757,248.755
		c16.027,0,29.066,13.039,29.066,29.066s-13.039,29.066-29.066,29.066s-29.066-13.039-29.066-29.066
		S219.729,248.755,235.757,248.755z M165.388,140.17c-7.995,0-14.5-6.505-14.5-14.5s6.505-14.5,14.5-14.5s14.5,6.505,14.5,14.5
		S173.383,140.17,165.388,140.17z M167.538,236.168c-7.995,0-14.5-6.505-14.5-14.5s6.505-14.5,14.5-14.5s14.5,6.505,14.5,14.5
		S175.533,236.168,167.538,236.168z M165.388,15c7.995,0,14.5,6.505,14.5,14.5s-6.505,14.5-14.5,14.5s-14.5-6.505-14.5-14.5
		S157.393,15,165.388,15z"/>
</g>
</svg>