<?xml version="1.0" encoding="iso-8859-1"?>
<!-- Uploaded to: SVG Repo, www.svgrepo.com, Generator: SVG Repo Mixer Tools -->
<svg version="1.1" id="Layer_1" xmlns="http://www.w3.org/2000/svg" xmlns:xlink="http://www.w3.org/1999/xlink" 
	 viewBox="0 0 512 512" xml:space="preserve">
<polygon style="fill:#64C1DF;" points="504.163,38.922 7.837,38.922 7.837,182.073 99.265,182.073 99.265,473.078 414.824,473.078 
	414.824,182.073 504.163,182.073 "/>
<rect x="7.837" y="38.922" style="fill:#FFFFFF;" width="496.327" height="20.898"/>
<g>
	<rect x="7.837" y="161.176" style="fill:#37A0BD;" width="91.429" height="20.898"/>
	<rect x="414.824" y="161.176" style="fill:#37A0BD;" width="89.339" height="20.898"/>
</g>
<path style="fill:#E57788;" d="M339.592,38.922v26.122c0,43.28-35.088,78.367-78.367,78.367c-21.64,0-41.232-8.777-55.411-22.956
	c-14.179-14.179-22.956-33.771-22.956-55.411V38.922"/>
<rect x="406.988" y="129.829" width="15.673" height="15.673"/>
<rect x="91.429" y="129.829" width="15.673" height="15.673"/>
<path d="M512,31.086H0V189.91h91.429v291.004h331.233V189.91H512V31.086z M331.755,57.208H190.694V46.759h141.061V57.208z
	 M331.309,72.882c-3.912,35.215-33.844,62.694-70.084,62.694c-18.834,0-36.545-7.337-49.87-20.661
	c-11.457-11.457-18.473-26.162-20.218-42.033H331.309z M107.102,465.241v-16.196h299.886v16.196H107.102z M496.327,174.237h-73.665
	v-13.061h-15.673v272.196H107.102V161.176H91.429v13.061H15.673V46.759H175.02v18.286c0,23.021,8.967,44.668,25.252,60.953
	c16.284,16.284,37.931,25.251,60.952,25.251c47.533,0,86.204-38.672,86.204-86.204V46.759h148.898V174.237z"/>
</svg>