<?xml version="1.0" encoding="iso-8859-1"?>
<!-- Uploaded to: SVG Repo, www.svgrepo.com, Generator: SVG Repo Mixer Tools -->
<svg version="1.1" id="Layer_1" xmlns="http://www.w3.org/2000/svg" xmlns:xlink="http://www.w3.org/1999/xlink" 
	 viewBox="0 0 512 512" xml:space="preserve">
<path style="fill:#E57788;" d="M318.965,7.837c-4.769,30.486-31.141,53.812-62.966,53.812l0,0
	c-31.824,0-58.197-23.326-62.965-53.812h-36.301l-20.898,99.265l10.449,78.367h219.429l10.449-78.367L355.265,7.837H318.965z"/>
<path style="fill:#ED9BA3;" d="M376.163,107.102l-0.063,0.522H135.899l-0.063-0.522l20.898-99.265h36.3
	c2.382,15.245,10.167,28.693,21.337,38.337c11.16,9.644,25.715,15.475,41.629,15.475c31.828,0,58.201-23.322,62.966-53.812h36.3
	L376.163,107.102z"/>
<g>
	<path style="fill:#FFFFFF;" d="M193.034,7.837c1.233,7.889,3.908,15.297,7.764,21.943h-48.682l4.618-21.943H193.034z"/>
	<path style="fill:#FFFFFF;" d="M359.883,29.78h-48.682c3.856-6.646,6.531-14.054,7.764-21.943h36.3L359.883,29.78z"/>
</g>
<polygon style="fill:#ED9BA3;" points="428.408,504.163 83.591,504.163 146.285,220.996 365.714,220.996 "/>
<polygon style="fill:#FFFFFF;" points="428.408,504.163 83.591,504.163 90.644,472.294 421.355,472.294 "/>
<rect x="146.285" y="185.469" style="fill:#F0BB4B;" width="219.429" height="35.527"/>
<g>
	<rect x="146.285" y="185.469" style="fill:#F9D85C;" width="219.429" height="17.763"/>
	<ellipse style="fill:#F9D85C;" cx="255.999" cy="203.233" rx="42.841" ry="36.049"/>
</g>
<path d="M73.83,512h364.34l-64.62-291.862v-34.15l10.558-79.184L361.623,0h-49.365l-1.037,6.626
	c-2.035,13.016-8.682,24.955-18.715,33.619c-10.132,8.749-23.099,13.568-36.507,13.568c-13.409,0-26.374-4.819-36.508-13.568
	c-10.033-8.663-16.68-20.602-18.715-33.619L199.74,0h-49.365L127.89,106.804l10.559,79.184v34.15L73.83,512z M214.876,228.833
	c9.21,11.063,24.206,18.286,41.123,18.286s31.913-7.222,41.123-18.286h62.3l52.168,235.624H100.409l52.168-235.624H214.876z
	 M206.646,213.159h-52.524v-19.853h52.524c-0.856,3.192-1.324,6.512-1.324,9.927C205.322,206.647,205.789,209.967,206.646,213.159z
	 M220.995,203.233c0-15.556,15.703-28.212,35.004-28.212c19.301,0,35.004,12.656,35.004,28.212s-15.703,28.212-35.004,28.212
	C236.698,231.445,220.995,218.789,220.995,203.233z M305.353,193.306h52.524v19.853h-52.524c0.856-3.192,1.324-6.512,1.324-9.927
	C306.677,199.818,306.21,196.498,305.353,193.306z M93.353,496.327l3.586-16.196H415.06l3.586,16.196H93.353z M163.092,15.673
	h23.561c3.605,14.079,11.475,26.833,22.595,36.433c12.98,11.207,29.582,17.379,46.751,17.379s33.771-6.172,46.751-17.379
	c11.119-9.601,18.989-22.355,22.594-36.433h23.561l19.311,91.726l-9.363,70.233h-61.729c-9.21-11.063-24.206-18.286-41.123-18.286
	s-31.913,7.222-41.123,18.286h-61.729l-8.289-62.171h167.565V99.788H145.384L163.092,15.673z"/>
<rect x="328.097" y="99.788" width="15.673" height="15.673"/>
</svg>